#!OML:ASF H:\GeneralSubjects\Female5\Project 1\Capture day 1\Session 1\Female5.ASF
:FULLY-SPECIFIED
:DEGREES
181
root -8.24179 16.101 0.00948475 -225.874 -93.3369 239.493
lowerback 8.17015 -0.0979814 -3.59431
upperback -11.015 -1.29307 -1.40969
thorax -17.0192 -0.42009 0.74217
lowerneck -20.9303 5.47755 7.34454
upperneck 18.633 7.20697 -8.51529
head 9.97148 2.85497 -3.14152
rclavicle -1.81391e-015 -1.82882e-014
rhumerus -70.4296 16.6155 -91.7906
rradius 52.1666
rwrist -22.1095
rhand -30.3587 -18.3195
rfingers 7.12502
rthumb -3.6639 -48.2677
lclavicle -1.81391e-015 -1.82882e-014
lhumerus -55.4207 -20.7251 98.1513
lradius 102.107
lwrist 3.144
lhand -35.3616 33.0893
lfingers 7.12502
lthumb -8.4937 62.8985
rfemur -31.0418 11.2562 22.7989
rtibia 15.5684
rfoot -15.3798 -15.3699
rtoes -28.1534
lfemur 4.30112 -3.14026 -32.492
ltibia 43.1886
lfoot -9.24283 23.193
ltoes -38.5139
182
root -8.97884 15.9197 -0.0279088 -219.464 -93.018 232.026
lowerback 9.28755 0.17166 -2.49475
upperback -10.5948 -0.695665 -1.2565
thorax -17.2449 -0.246125 0.16763
lowerneck -20.2091 5.37759 6.9514
upperneck 17.3578 7.31529 -9.30692
head 9.42498 2.82416 -3.33501
rclavicle -7.65321e-015 3.18055e-014
rhumerus -67.0774 18.1587 -91.7261
rradius 53.6184
rwrist -21.1361
rhand -30.1058 -18.1982
rfingers 7.12502
rthumb -3.41961 -48.1505
lclavicle -7.65321e-015 3.18055e-014
lhumerus -56.262 -19.2903 97.9115
lradius 99.1093
lwrist 2.5015
lhand -32.527 33.5334
lfingers 7.12502
lthumb -5.75755 63.4351
rfemur -28.5034 9.16311 25.1583
rtibia 17.9708
rfoot -12.6963 -13.221
rtoes -18.6995
lfemur 1.47507 -1.39381 -31.0049
ltibia 50.4057
lfoot -12.8423 21.1195
ltoes -36.4631
183
root -9.69023 15.7139 -0.0543479 -198.324 -92.1592 209.829
lowerback 10.6277 0.349731 -1.11128
upperback -10.0752 -0.0323526 -0.391797
thorax -17.4738 -0.0114001 0.214308
lowerneck -19.9981 5.46512 6.206
upperneck 16.2876 7.78726 -10.3157
head 9.08266 2.90378 -3.48557
rclavicle -3.44146e-015 2.68359e-015
rhumerus -62.7215 20.7445 -90.8293
rradius 54.8528
rwrist -19.7954
rhand -28.9102 -19.0444
rfingers 7.12502
rthumb -2.26497 -49.0121
lclavicle -3.44146e-015 2.68359e-015
lhumerus -57.0576 -16.575 97.5079
lradius 96.1783
lwrist 0.24606
lhand -29.9291 33.0707
lfingers 7.12502
lthumb -3.24897 63.0257
rfemur -26.2941 8.06733 27.9537
rtibia 21.1077
rfoot -14.6202 -11.0574
rtoes -18.4064
lfemur -1.87979 -0.0971782 -29.1178
ltibia 57.546
lfoot -17.6361 16.9344
ltoes -36.124
184
root -10.3753 15.5181 -0.0698708 -125.119 -92.3815 135.762
lowerback 12.1776 0.588216 1.69907
upperback -9.65218 1.08064 0.807198
thorax -17.9509 0.26604 -0.291771
lowerneck -20.0311 5.52734 5.63635
upperneck 15.6464 8.17853 -11.3477
head 8.93927 2.94493 -3.68573
rclavicle -6.95746e-015 1.59028e-015
rhumerus -58.154 22.9898 -89.1532
rradius 56.3819
rwrist -17.7624
rhand -30.0165 -18.728
rfingers 7.12502
rthumb -3.33343 -48.6817
lclavicle -6.95746e-015 1.59028e-015
lhumerus -58.429 -13.8736 96.862
lradius 94.0054
lwrist -3.11318
lhand -29.6407 33.1446
lfingers 7.12502
lthumb -2.97052 63.1037
rfemur -24.2556 7.68394 32.0369
rtibia 24.5395
rfoot -17.2076 -9.46315
rtoes -19.4425
lfemur -6.46165 1.37591 -25.9691
ltibia 63.4845
lfoot -22.6915 11.0479
ltoes -41.1785
185
root -11.0361 15.4534 -0.1031 -88.6833 -96.6587 100.52
lowerback 12.4845 1.50356 6.89716
upperback -9.67445 3.57985 1.9276
thorax -17.9574 0.828372 -2.5822
lowerneck -21.8524 4.96457 4.69536
upperneck 16.1183 7.73936 -11.6664
head 9.36754 2.56242 -3.69903
rclavicle 1.18153e-014 4.55217e-014
rhumerus -53.0649 22.707 -86.2033
rradius 58.7544
rwrist -16.2132
rhand -29.729 -18.2165
rfingers 7.12502
rthumb -3.05579 -48.1744
lclavicle 1.18153e-014 4.55217e-014
lhumerus -59.7467 -13.3067 96.2279
lradius 92.7182
lwrist -6.56354
lhand -32.0275 34.1059
lfingers 7.12502
lthumb -5.27527 64.0202
rfemur -23.0251 7.33571 38.0353
rtibia 25.3984
rfoot -18.4039 -6.64356
rtoes -14.997
lfemur -15.4758 3.61039 -20.2586
ltibia 70.702
lfoot -24.3182 7.55269
ltoes -39.9994
186
root -11.7153 15.4775 -0.123286 -79.4773 -97.1435 92.1642
lowerback 12.8498 2.31119 7.4005
upperback -10.1748 4.8631 2.02682
thorax -18.7088 1.29177 -3.10616
lowerneck -21.2007 4.6643 4.39647
upperneck 16.5413 7.50345 -11.8388
head 9.37545 2.41832 -3.75894
rclavicle 1.98288e-014 2.22639e-014
rhumerus -50.0123 22.7153 -84.0345
rradius 61.7477
rwrist -14.9751
rhand -31.2211 -17.1109
rfingers 7.12502
rthumb -4.49661 -47.0432
lclavicle 1.98288e-014 2.22639e-014
lhumerus -63.1902 -11.8234 95.2898
lradius 93.4247
lwrist -7.24782
lhand -33.2421 35.4116
lfingers 7.12502
lthumb -6.4479 65.2934
rfemur -20.4722 6.96518 38.7767
rtibia 24.162
rfoot -19.3607 -5.23273
rtoes -16.404
lfemur -23.7789 4.29463 -20.2691
ltibia 76.1495
lfoot -25.4693 3.58998
ltoes -40.3489
187
root -12.4108 15.5381 -0.156111 -79.6444 -96.8406 92.3483
lowerback 13.7366 2.77312 6.96734
upperback -10.3198 5.52096 2.04043
thorax -19.4708 1.59908 -3.09151
lowerneck -20.7305 4.34483 3.84297
upperneck 16.8536 7.2005 -11.54
head 9.33777 2.27856 -3.61557
rclavicle 3.32716e-014 3.1408e-014
rhumerus -47.0047 22.0369 -81.3489
rradius 65.453
rwrist -14.4331
rhand -30.8271 -16.2817
rfingers 7.12502
rthumb -4.11615 -46.2217
lclavicle 3.32716e-014 3.1408e-014
lhumerus -66.3906 -10.4728 94.4061
lradius 95.0335
lwrist -5.12829
lhand -33.3066 36.3475
lfingers 7.12502
lthumb -6.51022 66.2275
rfemur -16.4911 5.63286 38.5142
rtibia 21.9665
rfoot -20.129 -4.37639
rtoes -18.3247
lfemur -30.3209 2.9591 -21.043
ltibia 78.0455
lfoot -24.7521 4.09091
ltoes -42.4947
188
root -13.1433 15.5909 -0.19525 -80.7267 -96.3499 93.6558
lowerback 13.5915 3.37604 6.12299
upperback -10.4522 6.1541 2.00574
thorax -19.5575 1.98543 -2.84048
lowerneck -19.7915 3.79745 3.06961
upperneck 16.6925 6.5642 -11.12
head 9.01535 2.01431 -3.43465
rclavicle 9.56651e-015 2.38542e-015
rhumerus -44.3196 20.5378 -78.5001
rradius 69.1783
rwrist -13.8477
rhand -30.5493 -15.0991
rfingers 7.12502
rthumb -3.84792 -45.0441
lclavicle 9.56651e-015 2.38542e-015
lhumerus -69.342 -9.57832 93.7786
lradius 96.3103
lwrist -2.61656
lhand -33.8627 36.0117
lfingers 7.12502
lthumb -7.047 65.8744
rfemur -13.486 4.35979 37.9968
rtibia 21.3714
rfoot -21.0578 -3.00587
rtoes -17.551
lfemur -36.4163 0.972413 -21.859
ltibia 77.8637
lfoot -26.0621 4.94785
ltoes -45.7633
189
root -13.9001 15.6698 -0.244859 -85.6053 -95.8936 98.2333
lowerback 13.6048 3.66985 5.04567
upperback -10.356 6.32146 1.9803
thorax -19.529 2.21258 -2.32829
lowerneck -19.2054 3.45771 3.03628
upperneck 16.6458 6.08539 -11.0599
head 8.8516 1.81694 -3.47706
rclavicle 5.92875e-014 4.33351e-014
rhumerus -41.7596 19.0608 -76.4254
rradius 72.8607
rwrist -13.7622
rhand -32.2498 -15.1796
rfingers 7.12502
rthumb -5.48996 -45.0885
lclavicle 5.92875e-014 4.33351e-014
lhumerus -71.9108 -8.84735 92.7584
lradius 97.4088
lwrist 0.226581
lhand -34.7557 36.2451
lfingers 7.12502
lthumb -7.90895 66.0771
rfemur -8.82707 4.86915 37.7081
rtibia 19.1644
rfoot -21.8306 -2.30036
rtoes -11.5956
lfemur -41.2496 -1.48985 -22.2805
ltibia 76.0235
lfoot -27.8241 2.10388
ltoes -43.3783
